<svg width="36" height="36" viewBox="0 0 36 36" xmlns="http://www.w3.org/2000/svg">
<ellipse cx="17.6113" cy="18.4926" rx="17.5" ry="17.5073"/>
<path d="M27.3331 12.2569C26.61 12.585 25.8395 12.8024 25.0362 12.908C25.8626 12.3977 26.4934 11.5958 26.7899 10.6292C26.0194 11.1043 25.1687 11.4399 24.2621 11.6272C23.5305 10.8215 22.4878 10.3225 21.3503 10.3225C19.1434 10.3225 17.3666 12.1752 17.3666 14.4465C17.3666 14.7733 17.3934 15.0875 17.459 15.3867C14.1449 15.2195 11.2125 13.5767 9.24249 11.0742C8.89857 11.6913 8.69683 12.3977 8.69683 13.1582C8.69683 14.586 9.40777 15.8518 10.4675 16.5846C9.82704 16.572 9.19874 16.3797 8.66645 16.0768C8.66645 16.0893 8.66645 16.1057 8.66645 16.122C8.66645 18.1256 10.0482 19.7897 11.8602 20.1731C11.5357 20.2649 11.1821 20.3088 10.8151 20.3088C10.5599 20.3088 10.3022 20.2938 10.0604 20.2385C10.5769 21.8712 12.0425 23.0716 13.7852 23.1106C12.4289 24.2079 10.7069 24.869 8.84266 24.869C8.51576 24.869 8.20221 24.8539 7.88867 24.8124C9.65447 25.9902 11.7472 26.6626 14.0039 26.6626C21.3394 26.6626 25.3498 20.378 25.3498 14.9304C25.3498 14.7482 25.3437 14.5722 25.3352 14.3975C26.1263 13.8168 26.7911 13.0915 27.3331 12.2569Z" fill="white"/>
</svg>
