<svg width="36" height="27" viewBox="0 0 36 27" fill="none" xmlns="http://www.w3.org/2000/svg">
<path d="M27.1486 14.9672C26.8324 17.3543 24.7133 19.5149 20.8371 21.3977L20.1391 21.7368L23.0008 26.9976L23.6468 26.6716C31.8438 22.5341 36 16.6869 36 9.29221C36 6.74078 35.1866 4.53717 33.5823 2.74244C31.9555 0.92271 29.9812 0 27.714 0C25.6769 0 23.9494 0.72233 22.5797 2.14718C21.219 3.56285 20.529 5.32125 20.529 7.37363C20.529 9.31301 21.2259 11.0414 22.6005 12.5107C23.8128 13.8067 25.3404 14.6311 27.1486 14.9672ZM23.6552 3.17225C24.7483 2.03516 26.076 1.48247 27.714 1.48247C29.5636 1.48247 31.1193 2.21705 32.4701 3.72816C33.8436 5.26454 34.5113 7.08454 34.5113 9.29228C34.5113 12.6814 33.5528 15.7412 31.6628 18.3866C29.8593 20.9105 27.1544 23.1388 23.6162 25.0169L22.1826 22.3814C26.4942 20.1316 28.6787 17.4271 28.6787 14.3352V13.6731L28.0181 13.5986C26.2387 13.398 24.8231 12.7117 23.6898 11.5003C22.5648 10.2976 22.0178 8.94768 22.0178 7.3737C22.0177 5.69281 22.5534 4.31858 23.6552 3.17225Z" fill="#FFD459"/>
<path d="M6.94645 14.9651C6.63406 17.3541 4.53241 19.5158 0.687305 21.3988L0 21.7354L2.79056 27L3.44299 26.6722C11.6774 22.5349 15.8526 16.6875 15.8526 9.29221C15.8526 6.73916 15.0288 4.53437 13.4042 2.73915C11.7594 0.921661 9.77702 7.05719e-05 7.51163 7.05719e-05C5.47193 7.05719e-05 3.75244 0.723803 2.40096 2.15124C1.06108 3.56636 0.381657 5.32342 0.381657 7.3737C0.381657 9.31315 1.07859 11.0415 2.45299 12.5107C3.66286 13.804 5.17205 14.6277 6.94645 14.9651ZM3.48405 3.16819C4.55822 2.03383 5.87552 1.4824 7.51163 1.4824C9.36302 1.4824 10.9287 2.21803 12.2983 3.73145C13.6883 5.26741 14.3639 7.08629 14.3639 9.29221C14.3639 12.6808 13.4011 15.7401 11.5027 18.3852C9.69124 20.9085 6.97465 23.1365 3.42141 25.0143L2.02669 22.3829C6.30717 20.1324 8.4761 17.4273 8.4761 14.3351V13.6745L7.8172 13.5988C6.0743 13.3984 4.67606 12.712 3.54227 11.5002C2.4172 10.2976 1.87038 8.94782 1.87038 7.37363C1.87031 5.69064 2.39822 4.31494 3.48405 3.16819Z" fill="#FFD459"/>
</svg>
