<svg width="36" height="27" viewBox="0 0 36 27" fill="none" xmlns="http://www.w3.org/2000/svg">
<path d="M8.85143 12.0328C9.16763 9.64571 11.2867 7.48509 15.1629 5.60228L15.8609 5.26321L12.9992 0.00238049L12.3532 0.328434C4.15624 4.46589 0 10.3131 0 17.7078C0 20.2592 0.813375 22.4628 2.4177 24.2576C4.04452 26.0773 6.01875 27 8.28598 27C10.3231 27 12.0506 26.2777 13.4203 24.8528C14.781 23.4371 15.471 21.6788 15.471 19.6264C15.471 17.687 14.7741 15.9586 13.3995 14.4893C12.1872 13.1933 10.6596 12.3689 8.85143 12.0328ZM12.3448 23.8277C11.2517 24.9648 9.92405 25.5175 8.28598 25.5175C6.43641 25.5175 4.88067 24.7829 3.5299 23.2718C2.15641 21.7355 1.48873 19.9155 1.48873 17.7077C1.48873 14.3186 2.44716 11.2588 4.33723 8.61343C6.14067 6.08951 8.84559 3.86118 12.3838 1.98314L13.8174 4.61859C9.50583 6.86841 7.32129 9.5729 7.32129 12.6648V13.3269L7.98187 13.4014C9.76134 13.602 11.1769 14.2883 12.3102 15.4997C13.4352 16.7024 13.9822 18.0523 13.9822 19.6263C13.9823 21.3072 13.4466 22.6814 12.3448 23.8277Z" fill="#FFD459"/>
<path d="M29.0535 12.0349C29.3659 9.64592 31.4676 7.48418 35.3127 5.60116L36 5.26461L33.2094 0L32.557 0.327804C24.3226 4.46505 20.1474 10.3125 20.1474 17.7078C20.1474 20.2608 20.9712 22.4656 22.5958 24.2609C24.2406 26.0783 26.223 26.9999 28.4884 26.9999C30.5281 26.9999 32.2476 26.2762 33.599 24.8488C34.9389 23.4336 35.6183 21.6766 35.6183 19.6263C35.6183 17.6869 34.9214 15.9585 33.547 14.4893C32.3371 13.196 30.828 12.3723 29.0535 12.0349ZM32.5159 23.8318C31.4418 24.9662 30.1245 25.5176 28.4884 25.5176C26.637 25.5176 25.0713 24.782 23.7017 23.2686C22.3117 21.7326 21.6361 19.9137 21.6361 17.7078C21.6361 14.3192 22.5989 11.2599 24.4973 8.61483C26.3088 6.09147 29.0254 3.86349 32.5786 1.98566L33.9733 4.61705C29.6928 6.86764 27.5239 9.57269 27.5239 12.6649V13.3255L28.1828 13.4012C29.9257 13.6016 31.3239 14.288 32.4577 15.4998C33.5828 16.7024 34.1296 18.0522 34.1296 19.6264C34.1297 21.3094 33.6018 22.6851 32.5159 23.8318Z" fill="#FFD459"/>
</svg>
