<svg width="1079" height="840" viewBox="0 0 1079 840" fill="none" xmlns="http://www.w3.org/2000/svg">
<g style="mix-blend-mode:overlay" opacity="0.02">
<path d="M539.99 472.057C568.195 472.057 591.059 449.192 591.059 420.987C591.059 392.782 568.195 369.917 539.99 369.917C511.785 369.917 488.92 392.782 488.92 420.987C488.92 449.192 511.785 472.057 539.99 472.057Z" stroke="#F8F8F8" stroke-width="0.42" stroke-miterlimit="10"/>
</g>
<g style="mix-blend-mode:overlay" opacity="0.05">
<path d="M538.877 494.112C579.877 494.112 613.113 460.876 613.113 419.876C613.113 378.877 579.877 345.641 538.877 345.641C497.878 345.641 464.641 378.877 464.641 419.876C464.641 460.876 497.878 494.112 538.877 494.112Z" stroke="#F8F8F8" stroke-width="0.56" stroke-miterlimit="10"/>
</g>
<g style="mix-blend-mode:overlay" opacity="0.07">
<path d="M539.113 517.512C592.907 517.512 636.515 473.904 636.515 420.111C636.515 366.317 592.907 322.709 539.113 322.709C485.32 322.709 441.712 366.317 441.712 420.111C441.712 473.904 485.32 517.512 539.113 517.512Z" stroke="#F8F8F8" stroke-width="0.7" stroke-miterlimit="10"/>
</g>
<g style="mix-blend-mode:overlay" opacity="0.1">
<path d="M539.35 540.917C605.937 540.917 659.917 486.938 659.917 420.35C659.917 353.762 605.937 299.782 539.35 299.782C472.762 299.782 418.782 353.762 418.782 420.35C418.782 486.938 472.762 540.917 539.35 540.917Z" stroke="#F8F8F8" stroke-width="0.83" stroke-miterlimit="10"/>
</g>
<g style="mix-blend-mode:overlay" opacity="0.12">
<path d="M539.586 564.318C618.968 564.318 683.32 499.966 683.32 420.584C683.32 341.202 618.968 276.851 539.586 276.851C460.204 276.851 395.852 341.202 395.852 420.584C395.852 499.966 460.204 564.318 539.586 564.318Z" stroke="#F8F8F8" stroke-width="0.97" stroke-miterlimit="10"/>
</g>
<g style="mix-blend-mode:overlay" opacity="0.15">
<path d="M539.795 587.668C631.956 587.668 706.667 512.957 706.667 420.796C706.667 328.635 631.956 253.924 539.795 253.924C447.634 253.924 372.923 328.635 372.923 420.796C372.923 512.957 447.634 587.668 539.795 587.668Z" stroke="#F8F8F8" stroke-width="1.11" stroke-miterlimit="10"/>
</g>
<g style="mix-blend-mode:overlay" opacity="0.17">
<path d="M540.031 611.073C644.986 611.073 730.069 525.99 730.069 421.035C730.069 316.08 644.986 230.997 540.031 230.997C435.076 230.997 349.993 316.08 349.993 421.035C349.993 525.99 435.076 611.073 540.031 611.073Z" stroke="#F8F8F8" stroke-width="1.24" stroke-miterlimit="10"/>
</g>
<g style="mix-blend-mode:overlay" opacity="0.2">
<path d="M538.918 633.124C656.667 633.124 752.122 537.669 752.122 419.92C752.122 302.17 656.667 206.716 538.918 206.716C421.168 206.716 325.714 302.17 325.714 419.92C325.714 537.669 421.168 633.124 538.918 633.124Z" stroke="#F8F8F8" stroke-width="1.38" stroke-miterlimit="10"/>
</g>
<g style="mix-blend-mode:overlay" opacity="0.22">
<path d="M539.154 656.529C669.698 656.529 775.524 550.703 775.524 420.159C775.524 289.616 669.698 183.789 539.154 183.789C408.61 183.789 302.784 289.616 302.784 420.159C302.784 550.703 408.61 656.529 539.154 656.529Z" stroke="#F8F8F8" stroke-width="1.52" stroke-miterlimit="10"/>
</g>
<g style="mix-blend-mode:overlay" opacity="0.24">
<path d="M539.39 679.925C682.728 679.925 798.926 563.727 798.926 420.389C798.926 277.052 682.728 160.854 539.39 160.854C396.053 160.854 279.854 277.052 279.854 420.389C279.854 563.727 396.053 679.925 539.39 679.925Z" stroke="#F8F8F8" stroke-width="1.65" stroke-miterlimit="10"/>
</g>
<g style="mix-blend-mode:overlay" opacity="0.27">
<path d="M539.627 703.331C695.759 703.331 822.329 576.761 822.329 420.629C822.329 264.497 695.759 137.927 539.627 137.927C383.495 137.927 256.925 264.497 256.925 420.629C256.925 576.761 383.495 703.331 539.627 703.331Z" stroke="#F8F8F8" stroke-width="1.79" stroke-miterlimit="10"/>
</g>
<g style="mix-blend-mode:overlay" opacity="0.29">
<path d="M539.863 726.727C708.789 726.727 845.731 589.785 845.731 420.859C845.731 251.933 708.789 114.991 539.863 114.991C370.937 114.991 233.995 251.933 233.995 420.859C233.995 589.785 370.937 726.727 539.863 726.727Z" stroke="#F8F8F8" stroke-width="1.92" stroke-miterlimit="10"/>
</g>
<g style="mix-blend-mode:overlay" opacity="0.32">
<path d="M540.099 750.131C721.819 750.131 869.133 602.818 869.133 421.097C869.133 239.377 721.819 92.0635 540.099 92.0635C358.378 92.0635 211.065 239.377 211.065 421.097C211.065 602.818 358.378 750.131 540.099 750.131Z" stroke="#F8F8F8" stroke-width="2.06" stroke-miterlimit="10"/>
</g>
<g style="mix-blend-mode:overlay" opacity="0.34">
<path d="M538.987 772.183C733.502 772.183 891.187 614.498 891.187 419.983C891.187 225.468 733.502 67.7832 538.987 67.7832C344.472 67.7832 186.787 225.468 186.787 419.983C186.787 614.498 344.472 772.183 538.987 772.183Z" stroke="#F8F8F8" stroke-width="2.2" stroke-miterlimit="10"/>
</g>
<g style="mix-blend-mode:overlay" opacity="0.37">
<path d="M539.223 795.587C746.532 795.587 914.589 627.53 914.589 420.221C914.589 212.912 746.532 44.8555 539.223 44.8555C331.914 44.8555 163.857 212.912 163.857 420.221C163.857 627.53 331.914 795.587 539.223 795.587Z" stroke="#F8F8F8" stroke-width="2.33" stroke-miterlimit="10"/>
</g>
<g style="mix-blend-mode:overlay" opacity="0.39">
<path d="M539.46 818.992C759.562 818.992 937.991 640.563 937.991 420.46C937.991 200.357 759.562 21.9287 539.46 21.9287C319.356 21.9287 140.928 200.357 140.928 420.46C140.928 640.563 319.356 818.992 539.46 818.992Z" stroke="#F8F8F8" stroke-width="2.47" stroke-miterlimit="10"/>
</g>
<g style="mix-blend-mode:overlay" opacity="0.41">
<path d="M539.668 842.338C772.55 842.338 961.339 653.549 961.339 420.667C961.339 187.785 772.55 -1.00293 539.668 -1.00293C306.786 -1.00293 117.998 187.785 117.998 420.667C117.998 653.549 306.786 842.338 539.668 842.338Z" stroke="#F8F8F8" stroke-width="2.61" stroke-miterlimit="10"/>
</g>
<g style="mix-blend-mode:overlay" opacity="0.44">
<path d="M539.904 865.743C785.58 865.743 984.74 666.583 984.74 420.906C984.74 175.23 785.58 -23.9297 539.904 -23.9297C294.228 -23.9297 95.0679 175.23 95.0679 420.906C95.0679 666.583 294.228 865.743 539.904 865.743Z" stroke="#F8F8F8" stroke-width="2.74" stroke-miterlimit="10"/>
</g>
<g style="mix-blend-mode:overlay" opacity="0.46">
<path d="M540.141 889.139C798.611 889.139 1008.14 679.607 1008.14 421.137C1008.14 162.666 798.611 -46.8652 540.141 -46.8652C281.67 -46.8652 72.1383 162.666 72.1383 421.137C72.1383 679.607 281.67 889.139 540.141 889.139Z" stroke="#F8F8F8" stroke-width="2.88" stroke-miterlimit="10"/>
</g>
<g style="mix-blend-mode:overlay" opacity="0.49">
<path d="M539.028 911.199C810.292 911.199 1030.2 691.295 1030.2 420.03C1030.2 148.766 810.292 -71.1377 539.028 -71.1377C267.763 -71.1377 47.8593 148.766 47.8593 420.03C47.8593 691.295 267.763 911.199 539.028 911.199Z" stroke="#F8F8F8" stroke-width="3.02" stroke-miterlimit="10"/>
</g>
<g style="mix-blend-mode:overlay" opacity="0.51">
<path d="M539.264 934.595C823.323 934.595 1053.6 704.32 1053.6 420.261C1053.6 136.202 823.323 -94.0732 539.264 -94.0732C255.205 -94.0732 24.9297 136.202 24.9297 420.261C24.9297 704.32 255.205 934.595 539.264 934.595Z" stroke="#F8F8F8" stroke-width="3.15" stroke-miterlimit="10"/>
</g>
<g style="mix-blend-mode:overlay" opacity="0.54">
<path d="M539.5 958C836.353 958 1077 717.353 1077 420.5C1077 123.647 836.353 -117 539.5 -117C242.647 -117 2 123.647 2 420.5C2 717.353 242.647 958 539.5 958Z" stroke="#F8F8F8" stroke-width="3.29" stroke-miterlimit="10"/>
</g>
</svg>
