<svg width="36" height="36" fill="none" xmlns="http://www.w3.org/2000/svg"><ellipse cx="17.611" cy="18.493" rx="17.5" ry="17.507" fill="#2F37BA"/><path d="M27.333 12.257a8.097 8.097 0 01-2.297.651 4.078 4.078 0 001.754-2.279 7.81 7.81 0 01-2.528.998 3.934 3.934 0 00-2.912-1.305c-2.207 0-3.983 1.853-3.983 4.125 0 .326.026.64.092.94-3.314-.168-6.246-1.81-8.217-4.313a4.26 4.26 0 00-.545 2.084c0 1.428.71 2.694 1.77 3.427a3.838 3.838 0 01-1.8-.508v.045c0 2.004 1.381 3.668 3.193 4.051a3.852 3.852 0 01-1.045.136c-.255 0-.513-.015-.755-.07.517 1.632 1.982 2.833 3.725 2.872a7.843 7.843 0 01-5.896 1.701 10.954 10.954 0 006.115 1.85c7.335 0 11.346-6.284 11.346-11.732 0-.182-.006-.358-.015-.532a8.11 8.11 0 001.998-2.141z" fill="#fff"/></svg>