<svg width="36" height="36" fill="none" xmlns="http://www.w3.org/2000/svg"><ellipse cx="18.056" cy="18.493" rx="17.5" ry="17.507" fill="#2F37BA"/><path d="M27.467 22.864c-.05-.083-.358-.753-1.84-2.128-1.55-1.441-1.342-1.207.526-3.698 1.138-1.517 1.593-2.444 1.45-2.84-.135-.377-.972-.278-.972-.278l-2.783.016s-.206-.027-.36.064c-.15.09-.245.299-.245.299s-.441 1.174-1.03 2.172c-1.24 2.107-1.736 2.218-1.938 2.087-.471-.304-.353-1.225-.353-1.878 0-2.042.309-2.893-.604-3.113-.303-.073-.525-.122-1.3-.13-.993-.01-1.834.004-2.31.237-.317.155-.562.5-.412.52.184.025.6.113.822.414.286.388.275 1.261.275 1.261s.165 2.403-.383 2.702c-.376.205-.892-.213-1.997-2.125-.566-.979-.994-2.061-.994-2.061s-.083-.202-.23-.31c-.178-.13-.428-.172-.428-.172l-2.646.016s-.397.012-.543.184c-.13.154-.01.472-.01.472s2.071 4.849 4.417 7.293c2.152 2.241 4.595 2.094 4.595 2.094h1.106s.335-.037.505-.221c.157-.17.152-.486.152-.486s-.022-1.486.668-1.705c.68-.216 1.552 1.436 2.477 2.072.7.48 1.23.375 1.23.375l2.474-.035s1.294-.08.681-1.098z" fill="#fff"/></svg>