<svg width="36" height="27" fill="none" xmlns="http://www.w3.org/2000/svg"><path d="M8.851 12.033c.317-2.387 2.436-4.548 6.312-6.43l.698-.34-2.862-5.26-.646.325C4.156 4.466 0 10.313 0 17.708c0 2.551.813 4.755 2.418 6.55C4.045 26.078 6.018 27 8.286 27c2.037 0 3.765-.722 5.134-2.147 1.361-1.416 2.051-3.174 2.051-5.227 0-1.939-.697-3.667-2.072-5.137-1.212-1.296-2.74-2.12-4.548-2.456zm3.494 11.795c-1.093 1.137-2.421 1.69-4.059 1.69-1.85 0-3.405-.735-4.756-2.246-1.374-1.537-2.041-3.356-2.041-5.564 0-3.39.958-6.45 2.848-9.095 1.804-2.523 4.509-4.752 8.047-6.63l1.433 2.636c-4.311 2.25-6.496 4.954-6.496 8.046v.662l.66.074c1.78.201 3.196.887 4.33 2.099 1.124 1.202 1.671 2.552 1.671 4.126 0 1.681-.535 3.055-1.637 4.202zm16.708-11.793c.313-2.39 2.415-4.55 6.26-6.434L36 5.265 33.21 0l-.653.328c-8.234 4.137-12.41 9.984-12.41 17.38 0 2.553.824 4.758 2.449 6.553C24.24 26.078 26.223 27 28.488 27c2.04 0 3.76-.724 5.111-2.151 1.34-1.415 2.02-3.172 2.02-5.223 0-1.94-.698-3.668-2.072-5.137-1.21-1.293-2.719-2.117-4.493-2.454zm3.463 11.797c-1.074 1.134-2.391 1.686-4.028 1.686-1.851 0-3.417-.736-4.786-2.25-1.39-1.535-2.066-3.354-2.066-5.56 0-3.389.963-6.448 2.861-9.093 1.812-2.524 4.528-4.752 8.082-6.63l1.394 2.632c-4.28 2.25-6.45 4.956-6.45 8.048v.66l.66.076c1.743.2 3.14.887 4.275 2.099 1.125 1.202 1.672 2.552 1.672 4.126 0 1.683-.528 3.06-1.614 4.206z" fill="#FFD459"/></svg>