<svg width="36" height="27" fill="none" xmlns="http://www.w3.org/2000/svg"><path d="M27.149 14.967c-.317 2.387-2.436 4.548-6.312 6.43l-.698.34 2.862 5.26.646-.325C31.844 22.534 36 16.687 36 9.292c0-2.551-.813-4.755-2.418-6.55C31.955.922 29.982 0 27.714 0c-2.037 0-3.765.722-5.134 2.147-1.361 1.416-2.051 3.174-2.051 5.227 0 1.939.697 3.667 2.072 5.137 1.212 1.296 2.74 2.12 4.548 2.456zM23.655 3.172c1.093-1.137 2.421-1.69 4.059-1.69 1.85 0 3.405.735 4.756 2.246 1.374 1.537 2.041 3.357 2.041 5.564 0 3.39-.958 6.45-2.848 9.095-1.804 2.523-4.509 4.752-8.047 6.63l-1.433-2.636c4.311-2.25 6.496-4.954 6.496-8.046v-.662l-.66-.074c-1.78-.201-3.196-.887-4.33-2.099-1.124-1.202-1.671-2.552-1.671-4.126 0-1.681.535-3.055 1.637-4.202zM6.946 14.965c-.312 2.39-2.414 4.55-6.259 6.434L0 21.735 2.79 27l.653-.328c8.234-4.137 12.41-9.985 12.41-17.38 0-2.553-.824-4.758-2.449-6.553C11.76.922 9.777 0 7.512 0 5.472 0 3.752.724 2.4 2.151 1.061 3.566.381 5.323.381 7.374c0 1.94.698 3.667 2.072 5.137 1.21 1.293 2.719 2.117 4.493 2.454zM3.484 3.168c1.074-1.134 2.392-1.686 4.028-1.686 1.851 0 3.417.736 4.786 2.25 1.39 1.535 2.066 3.354 2.066 5.56 0 3.389-.963 6.448-2.861 9.093-1.812 2.523-4.528 4.752-8.082 6.63l-1.394-2.632c4.28-2.25 6.45-4.956 6.45-8.048v-.66l-.66-.076c-1.743-.2-3.14-.887-4.275-2.099C2.417 10.298 1.87 8.948 1.87 7.374c0-1.683.528-3.06 1.614-4.206z" fill="#FFD459"/></svg>