<svg xmlns="http://www.w3.org/2000/svg" xmlns:xlink="http://www.w3.org/1999/xlink"><symbol id="icon-fb" viewBox="0 0 35 36">
<ellipse cx="17.5" cy="18.4926" rx="17.5" ry="17.5073" fill="#2F37BA"/>
<path d="M18.6934 15.565V13.3758C18.6934 12.7715 19.1835 12.2812 19.7875 12.2812H20.8816V9.54468H18.6934C16.8804 9.54468 15.4109 11.0147 15.4109 12.8285V15.565H13.2227V18.3015H15.4109V27.0582H18.6934V18.3015H20.8816L21.9758 15.565H18.6934Z" fill="white"/>
</symbol><symbol id="icon-twitter" viewBox="0 0 36 36">
<ellipse cx="17.6113" cy="18.4926" rx="17.5" ry="17.5073" fill="#2F37BA"/>
<path d="M27.3331 12.2569C26.61 12.585 25.8395 12.8024 25.0362 12.908C25.8626 12.3977 26.4934 11.5958 26.7899 10.6292C26.0194 11.1043 25.1687 11.4399 24.2621 11.6272C23.5305 10.8215 22.4878 10.3225 21.3503 10.3225C19.1434 10.3225 17.3666 12.1752 17.3666 14.4465C17.3666 14.7733 17.3934 15.0875 17.459 15.3867C14.1449 15.2195 11.2125 13.5767 9.24249 11.0742C8.89857 11.6913 8.69683 12.3977 8.69683 13.1582C8.69683 14.586 9.40777 15.8518 10.4675 16.5846C9.82704 16.572 9.19874 16.3797 8.66645 16.0768C8.66645 16.0893 8.66645 16.1057 8.66645 16.122C8.66645 18.1256 10.0482 19.7897 11.8602 20.1731C11.5357 20.2649 11.1821 20.3088 10.8151 20.3088C10.5599 20.3088 10.3022 20.2938 10.0604 20.2385C10.5769 21.8712 12.0425 23.0716 13.7852 23.1106C12.4289 24.2079 10.7069 24.869 8.84266 24.869C8.51576 24.869 8.20221 24.8539 7.88867 24.8124C9.65447 25.9902 11.7472 26.6626 14.0039 26.6626C21.3394 26.6626 25.3498 20.378 25.3498 14.9304C25.3498 14.7482 25.3437 14.5722 25.3352 14.3975C26.1263 13.8168 26.7911 13.0915 27.3331 12.2569Z" fill="white"/>
</symbol><symbol id="icon-vk" viewBox="0 0 36 36">
<ellipse cx="18.0557" cy="18.4926" rx="17.5" ry="17.5073" fill="#2F37BA"/>
<path d="M27.467 22.8643C27.4172 22.7809 27.1093 22.1115 25.6275 20.7357C24.0763 19.295 24.2847 19.5289 26.1531 17.0378C27.291 15.5207 27.746 14.5942 27.6036 14.1981C27.4682 13.8206 26.6312 13.9202 26.6312 13.9202L23.8482 13.9364C23.8482 13.9364 23.6422 13.9086 23.4882 14.0001C23.3389 14.0904 23.2428 14.2989 23.2428 14.2989C23.2428 14.2989 22.8017 15.4732 22.2137 16.4715C20.9738 18.5781 20.4772 18.6893 20.2746 18.5584C19.8035 18.2538 19.9216 17.3331 19.9216 16.6799C19.9216 14.6382 20.2306 13.787 19.3184 13.5669C19.0151 13.494 18.7929 13.4453 18.0184 13.4372C17.0252 13.4268 16.1836 13.4407 15.7078 13.6735C15.3906 13.8287 15.1463 14.1749 15.2957 14.1946C15.4797 14.219 15.8965 14.307 16.1176 14.6081C16.4035 14.9961 16.3931 15.8693 16.3931 15.8693C16.3931 15.8693 16.5575 18.2724 16.0099 18.5711C15.6337 18.7761 15.1185 18.3581 14.013 16.446C13.4469 15.4674 13.0186 14.3846 13.0186 14.3846C13.0186 14.3846 12.9364 14.1831 12.7894 14.0753C12.6111 13.9445 12.3611 13.9028 12.3611 13.9028L9.71471 13.919C9.71471 13.919 9.31765 13.9306 9.17178 14.1031C9.04213 14.2572 9.16136 14.5745 9.16136 14.5745C9.16136 14.5745 11.2335 19.4235 13.5789 21.8683C15.7309 24.1093 18.1735 23.9622 18.1735 23.9622H19.2802C19.2802 23.9622 19.6148 23.9251 19.785 23.741C19.9424 23.5719 19.9366 23.2546 19.9366 23.2546C19.9366 23.2546 19.9146 21.7687 20.6046 21.5498C21.2841 21.3344 22.1569 22.9859 23.0819 23.6217C23.7811 24.1023 24.3125 23.9969 24.3125 23.9969L26.7863 23.9622C26.7863 23.9622 28.0805 23.8823 27.467 22.8643Z" fill="white"/>
</symbol></svg>